<?xml version="1.0" standalone="no"?>
<!DOCTYPE svg PUBLIC "-//W3C//DTD SVG 20010904//EN"
 "http://www.w3.org/TR/2001/REC-SVG-20010904/DTD/svg10.dtd">
<svg version="1.0" xmlns="http://www.w3.org/2000/svg"
 width="957.000000pt" height="957.000000pt" viewBox="0 0 957.000000 957.000000"
 preserveAspectRatio="xMidYMid meet">
<metadata>
Created by potrace 1.14, written by Peter Selinger 2001-2017
</metadata>
<g transform="translate(0.000000,957.000000) scale(0.100000,-0.100000)"
fill="#000000" stroke="none">
<path d="M386 9079 c-44 -7 -73 -32 -84 -73 -4 -17 -8 -828 -7 -1802 l0 -1771
25 -35 c49 -73 -33 -68 1199 -68 l1108 0 33 23 c19 12 42 37 53 54 18 31 18
71 18 965 0 1030 4 973 -63 1013 -32 19 -53 20 -468 22 -275 1 -448 -2 -470
-9 -49 -15 -96 -62 -109 -111 -7 -27 -10 -131 -9 -283 l3 -240 27 -41 c40 -60
83 -76 210 -78 59 0 110 -4 114 -8 5 -5 8 -268 4 -519 l0 -28 -455 0 -455 0
-1 28 c0 15 -1 516 -2 1115 l-2 1087 50 1 c28 0 382 1 787 1 807 0 776 -2 820
58 17 23 19 50 19 317 1 317 -1 331 -57 368 -25 16 -96 17 -1139 19 -612 0
-1128 -2 -1149 -5z"/>
<path d="M3241 9077 c-51 -10 -106 -62 -120 -114 -8 -26 -11 -594 -10 -1783
l0 -1745 25 -38 c42 -64 59 -67 361 -67 268 0 268 0 304 24 74 50 69 -43 69
1297 l0 1202 26 -49 c27 -51 41 -76 199 -369 139 -258 157 -291 205 -380 23
-44 55 -102 70 -130 15 -27 62 -115 106 -195 43 -80 84 -151 90 -157 25 -25
63 -29 280 -28 189 0 224 3 246 17 24 16 45 51 161 268 22 41 50 93 62 115 13
22 41 74 63 115 21 41 54 102 72 135 18 33 47 87 65 120 18 33 44 80 57 105
42 76 119 220 169 315 26 49 51 91 56 92 4 2 8 -529 8 -1180 -1 -710 3 -1195
9 -1214 5 -18 24 -47 43 -65 l34 -33 294 0 294 0 31 30 c18 17 37 41 43 55 17
40 17 3481 0 3540 -12 46 -47 87 -91 110 -17 8 -113 12 -340 12 -175 0 -331
-1 -349 -1 -43 -1 -84 -38 -89 -80 -2 -18 -17 -56 -33 -85 -16 -28 -48 -87
-71 -131 -24 -44 -55 -102 -70 -130 -25 -46 -68 -125 -337 -625 -51 -96 -98
-182 -103 -190 -5 -8 -23 -40 -39 -70 -16 -30 -50 -93 -75 -140 -26 -47 -61
-113 -79 -148 -17 -34 -35 -61 -40 -59 -4 1 -29 41 -54 87 -76 143 -324 602
-354 656 -15 28 -45 84 -67 125 -22 41 -64 119 -94 174 -30 55 -76 141 -103
190 -26 50 -77 143 -112 207 -34 64 -63 128 -63 142 0 14 -10 37 -23 52 l-23
26 -331 2 c-182 0 -350 -3 -372 -7z"/>
<path d="M7080 9077 c-50 -10 -115 -70 -128 -119 -5 -19 -8 -793 -8 -1768 l1
-1735 22 -35 c12 -19 39 -46 59 -60 37 -25 41 -25 273 -28 130 -2 250 0 268 3
43 8 89 48 115 99 21 40 21 51 21 609 l0 567 769 0 c739 0 770 1 807 19 20 11
50 39 67 62 l29 42 0 1113 0 1112 -30 44 c-61 86 32 80 -1164 81 -583 1 -1078
-2 -1101 -6z m1526 -806 c8 -1 11 -127 11 -426 l0 -425 -456 2 -456 3 -1 422
c-1 421 -1 422 20 425 17 2 840 1 882 -1z"/>
<path d="M1177 4914 c-1 -1 -36 -4 -77 -8 -61 -5 -213 -33 -280 -51 -146 -39
-215 -68 -293 -119 -149 -99 -268 -283 -292 -452 -10 -68 -10 -68 -45 -169
-31 -89 -104 -361 -115 -426 -3 -19 -12 -70 -20 -114 -8 -44 -17 -107 -21
-140 -4 -33 -8 -69 -10 -80 -23 -127 -23 -813 0 -1050 2 -16 6 -66 10 -110 4
-44 9 -87 11 -95 2 -8 7 -42 10 -75 3 -33 10 -85 15 -115 5 -30 12 -73 16 -95
3 -22 15 -85 26 -140 11 -55 22 -111 24 -125 3 -14 24 -106 48 -205 25 -99 52
-214 61 -255 49 -219 222 -425 427 -508 63 -25 202 -57 294 -68 33 -3 62 -8
66 -10 8 -5 333 -5 373 1 138 18 170 23 260 45 44 10 130 42 190 70 61 29 137
65 170 80 197 91 352 163 435 203 52 25 187 88 300 140 113 52 252 117 310
145 58 27 128 60 155 72 85 38 162 74 381 177 l211 99 36 -31 c123 -107 347
-170 667 -190 261 -15 333 -18 490 -18 344 1 543 56 673 185 67 66 42 69 241
-26 76 -36 140 -66 142 -66 1 0 64 -29 139 -65 76 -36 138 -65 140 -65 1 0 56
-25 121 -56 66 -31 146 -69 179 -84 33 -15 118 -55 189 -89 71 -34 130 -61
132 -61 2 0 69 -31 150 -70 80 -38 148 -70 150 -70 1 0 64 -29 139 -65 76 -36
138 -65 140 -65 2 0 65 -30 141 -66 124 -59 220 -90 334 -109 19 -3 48 -8 63
-11 16 -2 47 -7 70 -9 51 -6 376 -7 385 -1 4 2 34 7 67 11 33 3 99 15 145 26
47 10 96 21 109 24 40 10 135 61 192 105 144 112 235 251 274 420 9 41 31 129
47 195 17 66 32 129 34 140 2 11 10 47 18 80 9 33 18 74 21 90 5 29 8 48 20
105 2 14 7 41 10 60 3 19 10 60 15 90 5 30 11 69 14 85 2 17 7 49 11 73 4 24
8 60 10 80 4 48 16 169 21 207 24 198 23 863 -1 1070 -3 22 -7 58 -10 80 -16
140 -60 349 -110 520 -74 251 -84 287 -100 360 -43 196 -183 371 -370 460 -64
30 -250 86 -335 100 -19 3 -42 8 -50 10 -28 7 -164 18 -245 19 -127 2 -285
-17 -411 -50 -84 -21 -119 -40 -435 -230 -189 -114 -360 -216 -379 -227 -19
-10 -47 -28 -62 -38 -14 -11 -28 -19 -30 -19 -2 0 -224 -133 -493 -295 -587
-352 -646 -387 -649 -383 -2 2 -11 27 -22 56 -39 112 -166 215 -321 262 -89
27 -114 31 -258 45 -57 6 -396 6 -500 1 -38 -2 -128 -7 -200 -11 -204 -10
-316 -22 -465 -50 -174 -32 -342 -132 -406 -241 -14 -24 -29 -42 -32 -41 -15
8 -239 142 -272 163 -44 27 -522 314 -570 342 -29 16 -765 458 -851 511 -15 9
-57 34 -95 55 -38 22 -76 45 -84 52 -36 30 -220 75 -365 90 -66 6 -243 12
-248 8z"/>
</g>
</svg>
